# xmcd
#
# Track frame offsets: 
#        150
#        11750
#        21579
#        31758
#        42090
#        50295
#        61120
#        72751
#        84777
#        94083
#        106434
#        118207
#        127602
#        137568
#        151740
#        162142
#        173535
#        185123
#        195823
#        208029
#        224712
#        233876
#        243262
#        253273
#        263551
#        274967
#
# Disc length: 3854 seconds
#
# Revision: 0
# Processed by: cddbd v1.5.1PL0 Copyright (c) Steve Scherf et al.
# Submitted via: ExactAudioCopy v0.95a5
#
DISCID=5d0f0c1a
DTITLE=Various Artist - Boogie Wonders Vol. 1
DYEAR=1996
DGENRE=Blues
TTITLE0=Dion - A Teenager in Love
TTITLE1=The Chordettes - Lollipop
TTITLE2=Fats Domino - Be My Guest
TTITLE3=Elvis Presley - I Got a Woman
TTITLE4=Elvis Presley - Teddy Bear
TTITLE5=Clint Miller - Teenage Dance
TTITLE6=Lloyd Price - Personality
TTITLE7=Barry Mann - Who put the Bomp
TTITLE8=Eddie Hodges - I´m gonna knock on your Door
TTITLE9=Stray Cats - Your true love
TTITLE10=Wayne Carroll - Chicken Out
TTITLE11=Fats Domino - I am ready
TTITLE12=Fats Domino - I´m walking
TTITLE13=Stray Cats - Blue Jean Bop
TTITLE14=Rosemary Clooney - Botch a me
TTITLE15=Johnny Ray - Yes Tonight, Josephine
TTITLE16=Johnny Cymbal - Mr. Bassman
TTITLE17=Paul Anka - Diana
TTITLE18=Jackie Wilson - Reet Petite
TTITLE19=James Intveld - King cry Baby
TTITLE20=Elvis Presley - Don´t be cruel
TTITLE21=Jerry Jaye - Ain´t got no Home
TTITLE22=Elvis Presley - My Baby left me
TTITLE23=Kenny Parchman - You call Everybody Dralin`
TTITLE24=Roy Hamilton - Don´t let go
TTITLE25=Christian Christl - Boogie Pour Adeline
EXTD=
EXTT0=
EXTT1=
EXTT2=
EXTT3=
EXTT4=
EXTT5=
EXTT6=
EXTT7=
EXTT8=
EXTT9=
EXTT10=
EXTT11=
EXTT12=
EXTT13=
EXTT14=
EXTT15=
EXTT16=
EXTT17=
EXTT18=
EXTT19=
EXTT20=
EXTT21=
EXTT22=
EXTT23=
EXTT24=
EXTT25=
PLAYORDER=
